<svg id="Calque_2" data-name="Calque 2" xmlns="http://www.w3.org/2000/svg" viewBox="0 0 109 87"><defs><style>.cls-1,.cls-2{fill:none;}.cls-1,.cls-2,.cls-3{stroke:#FFF;stroke-miterlimit:10;stroke-width:2.5px;}.cls-2{stroke-linecap:round;}.cls-3{fill:#394553;}</style></defs><title>connect</title><line class="cls-1" x1="71.96" y1="54.59" x2="80.53" y2="54.59"/><path class="cls-1" d="M45.78,65.33a5,5,0,0,1-5.58-2.46L33,50.58H28.69"/><line class="cls-2" x1="52.77" y1="52.61" x2="57.06" y2="60.33"/><line class="cls-2" x1="46.57" y1="57.65" x2="49.35" y2="62.49"/><path class="cls-1" d="M62.6,62.09C61.35,62.62,59,63.61,57,60.3"/><path class="cls-1" d="M53.87,64.16s-2.61,1.8-4.51-1.67"/><line class="cls-1" x1="28.67" y1="25.63" x2="42.81" y2="25.63"/><polyline class="cls-1" points="18.17 21.54 28.39 21.54 28.39 55.09 18.09 55.09"/><polyline class="cls-1" points="90.83 24.43 80.61 24.43 80.61 57.98 90.91 57.98"/><path class="cls-1" d="M72.81,55.95l-11.56-22c-1-.06-6-.51-6-.51l-6.83,6.93c-5.7,4.35-8.81-2.06-8.81-2.06l8.77-11.43c2.94-3.7,5.9-3.74,5.9-3.74l13.2,0,12.92,5.62"/><path class="cls-2" d="M73.57,55.07c-.52,1.48-3.89,10.15-8.23,2.56l-6-9.48"/><circle class="cls-3" cx="88.67" cy="49.61" r="0.78"/><circle class="cls-3" cx="20.31" cy="46.63" r="0.78"/></svg>