<svg id="Calque_2" data-name="Calque 2" xmlns="http://www.w3.org/2000/svg" viewBox="0 0 109 87"><defs><style>.cls-1,.cls-2{fill:none;stroke:#394553;stroke-linejoin:round;stroke-width:2.5px;}.cls-2{stroke-linecap:round;}</style></defs><title>goals</title><path class="cls-1" d="M70.72,46a25.25,25.25,0,1,1,0-9.08"/><path class="cls-1" d="M60.67,45.93a15.33,15.33,0,1,1,0-9"/><path class="cls-1" d="M50.42,45.89a6.25,6.25,0,1,1-.13-9"/><line class="cls-2" x1="46.11" y1="41.4" x2="83.71" y2="41.4"/><line class="cls-2" x1="83.71" y1="41.4" x2="88.38" y2="35.6"/><line class="cls-2" x1="88.38" y1="47.18" x2="83.71" y2="41.38"/><line class="cls-2" x1="74.93" y1="41.4" x2="79.6" y2="35.6"/><line class="cls-2" x1="79.6" y1="47.18" x2="74.93" y2="41.38"/><line class="cls-2" x1="24.3" y1="70.78" x2="25.67" y2="68.35"/><line class="cls-1" x1="25.33" y1="68.94" x2="27.3" y2="65.45"/><line class="cls-2" x1="67.03" y1="70.78" x2="65.67" y2="68.35"/><line class="cls-1" x1="66" y1="68.94" x2="64.03" y2="65.45"/></svg>