<svg id="Layer_1" data-name="Layer 1" xmlns="http://www.w3.org/2000/svg" viewBox="0 0 1200 271.49"><defs><style>.cls-1,.cls-8{fill:#f25aa3;}.cls-1,.cls-10,.cls-2,.cls-3,.cls-7{fill-rule:evenodd;}.cls-2,.cls-5{fill:#90cc32;}.cls-3,.cls-4{fill:#0074bc;}.cls-6,.cls-7{fill:#ffa91f;}.cls-10,.cls-9{fill:#2abbf4;}.cls-11{font-size:77.36px;font-family:AvenirNext-UltraLight, Avenir Next;}.cls-11,.cls-13{fill:#4c4e7a;}.cls-12{font-family:AvenirNext-Medium, Avenir Next;}.cls-13{font-size:26.56px;font-family:AvenirNext-Regular, Avenir Next;}.cls-14{letter-spacing:-0.01em;}.cls-15{letter-spacing:-0.01em;}.cls-16{letter-spacing:-0.01em;}.cls-17{letter-spacing:0em;}.cls-18{letter-spacing:-0.1em;}</style></defs><title>sdth-logo</title><path class="cls-1" d="M239.82,102.23a52,52,0,0,0-34.25-28.12V65.39A60.49,60.49,0,0,1,247.19,98Z"/><path class="cls-2" d="M141.19,120.22q-.17,2.09-.17,4.22a51.91,51.91,0,0,0,39.23,50.33v8.72a60.4,60.4,0,0,1-47.73-59c0-1.42.05-2.82.15-4.22Z"/><path class="cls-3" d="M192.91,64.06c1.42,0,2.82.05,4.22.15v8.51q-2.09-.17-4.22-.17a51.91,51.91,0,0,0-50.33,39.23h-8.72a60.4,60.4,0,0,1,59-47.72"/><rect class="cls-4" x="188.69" y="47.04" width="8.44" height="24.55"/><path class="cls-3" d="M192.91,27.35A9.69,9.69,0,1,1,183.22,37a9.69,9.69,0,0,1,9.69-9.69m0-7.82A17.51,17.51,0,1,1,175.4,37,17.51,17.51,0,0,1,192.91,19.54Z"/><rect class="cls-5" x="105.57" y="120.22" width="34.5" height="8.44"/><path class="cls-2" d="M81,124.44a9.69,9.69,0,1,1,9.69,9.69A9.69,9.69,0,0,1,81,124.44m-7.82,0a17.51,17.51,0,1,1,17.51,17.51A17.51,17.51,0,0,1,73.14,124.44Z"/><rect class="cls-6" x="188.69" y="182.21" width="8.44" height="27.16"/><path class="cls-7" d="M192.91,231a9.69,9.69,0,1,1,9.69-9.69,9.69,9.69,0,0,1-9.69,9.69m0,7.82a17.51,17.51,0,1,1,17.51-17.51A17.51,17.51,0,0,1,192.91,238.86Z"/><rect class="cls-8" x="235.97" y="83.69" width="40.43" height="8.44" transform="translate(-9.63 139.87) rotate(-30)"/><path class="cls-1" d="M290.25,67.31A9.69,9.69,0,1,1,277,63.77a9.69,9.69,0,0,1,13.24,3.55M297,63.41A17.51,17.51,0,1,1,273.1,57,17.51,17.51,0,0,1,297,63.41Z"/><rect class="cls-9" x="243.01" y="148.09" width="8.44" height="24.55" transform="translate(-22.94 278.07) rotate(-56.51)"/><path class="cls-10" d="M273.88,178a9.69,9.69,0,1,1-2.74-13.43A9.69,9.69,0,0,1,273.88,178m6.52,4.31a17.51,17.51,0,1,1-4.94-24.26A17.51,17.51,0,0,1,280.4,182.32Z"/><path class="cls-3" d="M203.41,87.7A38.29,38.29,0,0,0,171.22,93l-4.82-4.23a44.53,44.53,0,0,1,38.25-7.2Z"/><path class="cls-1" d="M226.22,105.72a38.39,38.39,0,0,0-16.92-15.8l1.26-6.29A44.63,44.63,0,0,1,232.42,104Z"/><path class="cls-10" d="M219.47,151.9q1.11-1.07,2.14-2.25a38.19,38.19,0,0,0,7.23-38.2l6-1.65a44.44,44.44,0,0,1-8.58,44q-1,1.18-2.13,2.26Z"/><path class="cls-7" d="M165.45,151q1.07,1.11,2.25,2.14a38.22,38.22,0,0,0,46.9,2.75l4.82,4.23a44.47,44.47,0,0,1-55.85-2.29q-1.18-1-2.26-2.13Z"/><path class="cls-2" d="M159.51,95.1q1-1.18,2.13-2.26L166.35,97q-1.11,1.07-2.14,2.25a38.22,38.22,0,0,0-2.75,46.9L157.22,151a44.47,44.47,0,0,1,2.29-55.85"/><path class="cls-7" d="M215.5,171.16a51.67,51.67,0,0,1-22.59,5.17q-2.13,0-4.22-.17v8.51c1.39.1,2.8.15,4.22.15a60.11,60.11,0,0,0,27.23-6.48Z"/><path class="cls-10" d="M238.37,149.46a52.13,52.13,0,0,1-13.9,16.15l4.62,7.15a60.68,60.68,0,0,0,16.38-18.61Z"/><path class="cls-1" d="M241.57,142l7.58,4A60.53,60.53,0,0,0,247,97.47l-7.62,3.75A52,52,0,0,1,241.57,142Z"/><text class="cls-11" transform="translate(315.97 146.95)">SAN DIEGO <tspan class="cls-12" x="446.66" y="0">TECH HUB</tspan></text><text class="cls-13" transform="translate(315.97 191.43) scale(1.15 1)"><tspan class="cls-14">C</tspan><tspan x="18.8" y="0">ommunity</tspan><tspan class="cls-12" x="140.82" y="0"> </tspan></text><text class="cls-13" transform="translate(514.79 191.84) scale(1.15 1)">Educ<tspan class="cls-15" x="61.35" y="0">a</tspan><tspan x="75.27" y="0">tion</tspan></text><text class="cls-13" transform="translate(692.13 191.93) scale(1.15 1)">Inclusion</text><text class="cls-13" transform="translate(868.35 192.01) scale(1.15 1)">Innov<tspan class="cls-16" x="66.96" y="0">a</tspan><tspan class="cls-17" x="80.87" y="0">tion</tspan></text><text class="cls-13" transform="translate(1052.48 192.09) scale(1.15 1)"><tspan class="cls-18">T</tspan><tspan x="12.59" y="0">alent</tspan></text><text class="cls-13" transform="translate(487.71 190.78) scale(1.15 1)">|</text><text class="cls-13" transform="translate(667.35 191.34) scale(1.15 1)">|</text><text class="cls-13" transform="translate(840.21 191.91) scale(1.15 1)">|</text><text class="cls-13" transform="translate(1035.08 191.35) scale(1.15 1)">|</text></svg>