<svg id="Calque_2" data-name="Calque 2" xmlns="http://www.w3.org/2000/svg" viewBox="0 0 109 87"><defs><style>.cls-1{fill:none;stroke:#394553;stroke-miterlimit:10;stroke-width:2.5px;}</style></defs><title>silos</title><path class="cls-1" d="M64.59,55.4c8,1.47,15.34,4.86,15.34,11,0,8.79-13.13,11.92-25.43,11.92S29.07,75.2,29.07,66.41c0-6.2,6.94-9.59,15.07-11"/><path class="cls-1" d="M64.61,61.39C69.07,62.44,72,64.18,72,66.14,72,69.36,64.15,72,54.5,72S37,69.36,37,66.14c0-1.91,2.75-3.6,7-4.67"/><path class="cls-1" d="M59.42,65.93V49.82h1.05a4,4,0,0,0,4-4V31.07a4,4,0,0,0-4-4h-12a4,4,0,0,0-4,4V45.84a4,4,0,0,0,4,4h1.05V65.93"/><ellipse class="cls-1" cx="54.46" cy="14.91" rx="6.25" ry="6.24"/></svg>