<svg id="Layer_1" data-name="Layer 1" xmlns="http://www.w3.org/2000/svg" viewBox="0 0 548.21 534.52"><defs><style>.cls-1,.cls-2{fill:#0074bc;}.cls-1,.cls-3,.cls-6,.cls-8,.cls-9{fill-rule:evenodd;}.cls-3,.cls-4{fill:#90cc32;}.cls-5,.cls-6{fill:#ffa91f;}.cls-7,.cls-8{fill:#2abbf4;}.cls-10,.cls-9{fill:#f25aa3;}.cls-11{font-size:24.82px;fill:#4c4e7a;font-family:AvenirNext-UltraLight, Avenir Next;}.cls-12{font-family:AvenirNext-Medium, Avenir Next;}</style></defs><title>circle-logo</title><path class="cls-1" d="M290.92,123.38c3.24,0,6.45.12,9.64.34v19.45q-4.77-.38-9.64-.39a118.57,118.57,0,0,0-115,89.62H156a138,138,0,0,1,134.88-109"/><rect class="cls-2" x="281.29" y="84.5" width="19.27" height="56.09"/><path class="cls-1" d="M290.92,39.52a22.14,22.14,0,1,1-22.14,22.14,22.14,22.14,0,0,1,22.14-22.14m0-17.85a40,40,0,1,1-40,40A40,40,0,0,1,290.92,21.67Z"/><path class="cls-1" d="M314.92,177.38a87.46,87.46,0,0,0-73.54,12.07l-11-9.67a101.72,101.72,0,0,1,87.36-16.44Z"/><path class="cls-3" d="M172.79,251.66q-.38,4.77-.39,9.64a118.57,118.57,0,0,0,89.62,115v19.91A138,138,0,0,1,153,261.3c0-3.24.12-6.45.34-9.64Z"/><rect class="cls-4" x="91.41" y="251.66" width="78.8" height="19.27"/><path class="cls-3" d="M35.2,261.3a22.14,22.14,0,1,1,22.14,22.14A22.14,22.14,0,0,1,35.2,261.3m-17.85,0a40,40,0,1,1,40,40A40,40,0,0,1,17.34,261.3Z"/><path class="cls-3" d="M214.63,194.29q2.36-2.69,4.87-5.16l10.76,9.45q-2.53,2.45-4.9,5.14a87.29,87.29,0,0,0-6.28,107.14l-9.67,11a101.57,101.57,0,0,1,5.23-127.57"/><rect class="cls-5" x="281.29" y="393.25" width="19.27" height="62.05"/><path class="cls-6" d="M290.92,504.82a22.14,22.14,0,1,1,22.14-22.14,22.14,22.14,0,0,1-22.14,22.14m0,17.85a40,40,0,1,1,40-40A40,40,0,0,1,290.92,522.67Z"/><path class="cls-6" d="M228.2,322q2.45,2.53,5.14,4.9a87.29,87.29,0,0,0,107.14,6.29l11,9.67a101.57,101.57,0,0,1-127.57-5.23q-2.69-2.36-5.16-4.87Z"/><path class="cls-6" d="M342.51,368a118,118,0,0,1-51.59,11.8q-4.87,0-9.63-.39v19.45c3.18.22,6.39.34,9.63.34a137.31,137.31,0,0,0,62.19-14.8Z"/><rect class="cls-7" x="405.35" y="315.33" width="19.27" height="56.09" transform="translate(-100.37 500.01) rotate(-56.51)"/><path class="cls-8" d="M475.88,383.66A22.14,22.14,0,1,1,469.63,353a22.14,22.14,0,0,1,6.25,30.68m14.89,9.85a40,40,0,1,1-11.29-55.42A40,40,0,0,1,490.77,393.51Z"/><path class="cls-8" d="M351.59,324q2.53-2.45,4.9-5.14A87.23,87.23,0,0,0,373,231.62l13.82-3.76a101.5,101.5,0,0,1-19.6,100.45q-2.36,2.69-4.87,5.16Z"/><path class="cls-8" d="M394.77,318.45A119.08,119.08,0,0,1,363,355.35l10.56,16.34A138.61,138.61,0,0,0,411,329.18Z"/><path class="cls-9" d="M367,218.54a87.69,87.69,0,0,0-38.64-36.09l2.87-14.38a102,102,0,0,1,49.92,46.61Z"/><path class="cls-9" d="M398.07,210.56a118.79,118.79,0,0,0-78.24-64.23V126.42a138.17,138.17,0,0,1,95.09,74.42Z"/><rect class="cls-10" x="389.28" y="168.21" width="92.36" height="19.27" transform="translate(-30.59 241.55) rotate(-30)"/><path class="cls-9" d="M513.26,130.81a22.14,22.14,0,1,1-30.25-8.1,22.14,22.14,0,0,1,30.25,8.1m15.46-8.93a40,40,0,1,1-54.63-14.64A40,40,0,0,1,528.72,121.88Z"/><path class="cls-9" d="M402.07,301.31l17.31,9.11a138.27,138.27,0,0,0-5-110.73L397,208.27A118.82,118.82,0,0,1,402.07,301.31Z"/><text class="cls-11" transform="translate(222.18 255.78)">SAN DIEGO<tspan class="cls-12"><tspan x="7.25" y="29.78">TECH HUB</tspan></tspan></text></svg>
