<?xml version="1.0" encoding="UTF-8"?>
<svg width="98px" height="73px" viewBox="0 0 88 84" version="1.1" xmlns="http://www.w3.org/2000/svg" xmlns:xlink="http://www.w3.org/1999/xlink">
    <!-- Generator: Sketch 52.6 (67491) - http://www.bohemiancoding.com/sketch -->
    <title>icon_inclusion</title>
    <desc>Created with Sketch.</desc>
    <g id="Page-1" stroke="none" stroke-width="1" fill="none" fill-rule="evenodd" stroke-linejoin="round">
        <g id="San_Diego_Tech_Hub_Homepage" transform="translate(-676.000000, -1452.000000)" stroke="#FFFFFF" stroke-width="3.5">
            <path d="M751.602508,1487.25349 L751.602508,1468.77919 C751.584,1465.71247 753.580068,1463.1882 756.340678,1463.16969 C759.097017,1463.15546 761.369288,1465.64983 761.387797,1468.71939 L761.387797,1504.58169 L744.945153,1526.0501 C744.945153,1526.0501 743.164068,1528.12732 743.692271,1535.72576 M724.017763,1535.90373 L724.037695,1519.24041 C724.037695,1512.76814 731.587729,1508.38163 731.587729,1508.38163 C735.004678,1506.09369 738.894305,1502.10583 738.894305,1502.10583 L745.338102,1495.12102 C747.993356,1492.24366 751.827458,1491.41932 753.857695,1493.28868 C755.89078,1495.15946 755.379661,1499.04197 752.722983,1501.91932 L743.666644,1511.72881 M687.986034,1487.25349 L687.983186,1468.77919 C688.001695,1465.71247 686.005627,1463.1882 683.245017,1463.16969 C680.488678,1463.15546 678.216407,1465.64983 678.197898,1468.71939 L678.200746,1504.58169 L694.640542,1526.0501 C694.640542,1526.0501 696.421627,1528.12732 695.893424,1535.72576 M715.567932,1535.90373 L715.548,1519.24041 C715.548,1512.76814 707.997966,1508.38163 707.997966,1508.38163 C704.581017,1506.09369 700.692814,1502.10583 700.692814,1502.10583 L694.247593,1495.12102 C691.595186,1492.24366 687.759661,1491.41932 685.728,1493.28868 C683.697763,1495.15946 684.208881,1499.04197 686.865559,1501.91932 L695.921898,1511.72881 M722.528542,1457.44488 C726.962034,1453.01139 734.143322,1452.9402 738.484271,1457.28542 C742.829492,1461.62922 742.759729,1468.81051 738.327661,1473.24258 L719.796407,1491.74678 L701.260881,1473.24258 C696.82739,1468.81051 696.757627,1461.62922 701.102847,1457.28542 C705.44522,1452.9402 712.626508,1453.01139 717.057153,1457.44488 L719.785017,1460.16847 L722.528542,1457.44488 Z" id="icon_inclusion"></path>
        </g>
    </g>
</svg>