<?xml version="1.0" encoding="UTF-8"?>
<svg width="98px" height="73px" viewBox="0 0 78 103" version="1.1" xmlns="http://www.w3.org/2000/svg" xmlns:xlink="http://www.w3.org/1999/xlink">
    <!-- Generator: Sketch 52.6 (67491) - http://www.bohemiancoding.com/sketch -->
    <title>icon_innovation</title>
    <desc>Created with Sketch.</desc>
    <g id="Page-1" stroke="none" stroke-width="1" fill="none" fill-rule="evenodd" stroke-linecap="round" stroke-linejoin="round">
        <g id="San_Diego_Tech_Hub_Homepage" transform="translate(-882.000000, -1434.000000)" stroke="#FFFFFF" stroke-width="3.5">
            <path d="M909.177168,1525.21457 L932.578928,1525.21457 M914.82544,1535.03255 L926.93036,1535.03255 M920.877752,1442.3639 L920.877752,1435.75614 M952.01044,1456.69773 L957.3858,1451.32847 M884.369852,1451.32774 L889.745212,1456.697 M920.877752,1515.76167 L920.877752,1490.80329 M920.861176,1490.803 L911.951576,1481.90675 M920.893588,1490.803 L929.803188,1481.90675 M948.89912,1481.68215 C948.89912,1488.64309 947.466002,1493.21765 943.954789,1497.44148 C942.765799,1498.72846 941.542148,1499.89344 940.359186,1501.02031 C936.398899,1504.78974 933.319562,1508.67049 931.750818,1516.26425 L910.12419,1516.26425 C908.562981,1508.68726 905.501728,1504.81109 901.556511,1501.04776 C900.378069,1499.92089 899.15894,1498.75895 897.977484,1497.47351 C894.629022,1493.26492 893,1488.0972 893,1481.68215 C893,1466.41839 905.531867,1454 920.937504,1454 C936.355197,1454 948.89912,1466.41839 948.89912,1481.68215 Z" id="icon_innovation"></path>
        </g>
    </g>
</svg>