<svg id="Calque_2" data-name="Calque 2" xmlns="http://www.w3.org/2000/svg" viewBox="0 0 109 87"><defs><style>.cls-1,.cls-2,.cls-3,.cls-5{fill:none;}.cls-1,.cls-2,.cls-3,.cls-4,.cls-5{stroke:#394553;stroke-width:2.5px;}.cls-1,.cls-2{stroke-linejoin:round;}.cls-2,.cls-5{stroke-linecap:round;}.cls-3,.cls-4,.cls-5{stroke-miterlimit:10;}.cls-4{fill:#394553;}</style></defs><title>judge</title><line class="cls-1" x1="54.5" y1="57.37" x2="54.5" y2="23.59"/><path class="cls-2" d="M84,45.83c0,3.46-3.91,6.27-8.73,6.27s-8.73-2.81-8.73-6.27S75.23,28,75.23,28,84,42.37,84,45.83Z"/><line class="cls-3" x1="67.34" y1="44.38" x2="83.13" y2="44.38"/><path class="cls-2" d="M42.49,45.83c0,3.46-3.91,6.27-8.73,6.27S25,49.3,25,45.83,33.77,28,33.77,28,42.49,42.37,42.49,45.83Z"/><line class="cls-3" x1="25.87" y1="44.38" x2="41.66" y2="44.38"/><circle class="cls-4" cx="54.5" cy="16.6" r="0.84"/><path class="cls-3" d="M54.52,62.32A19,19,0,0,0,38.4,71.24l32.21-.06A19,19,0,0,0,54.52,62.32Z"/><path class="cls-5" d="M27.46,25c.13.26,2.24,4.22,8.74,1.9a47.11,47.11,0,0,1,18.27-3.35h.06A47.1,47.1,0,0,1,72.8,26.94c6.51,2.32,8.61-1.65,8.74-1.9"/></svg>