<?xml version="1.0" encoding="UTF-8"?>
<svg width="98px" height="73px" viewBox="0 0 86 92" version="1.1" xmlns="http://www.w3.org/2000/svg" xmlns:xlink="http://www.w3.org/1999/xlink">
    <!-- Generator: Sketch 52.6 (67491) - http://www.bohemiancoding.com/sketch -->
    <title>icon_talent</title>
    <desc>Created with Sketch.</desc>
    <g id="Page-1" stroke="none" stroke-width="1" fill="none" fill-rule="evenodd">
        <g id="San_Diego_Tech_Hub_Homepage" transform="translate(-1090.000000, -1443.000000)" stroke="#4c4e7a" stroke-width="3.5">
            <path d="M1143.07853,1459.756 C1143.07853,1459.756 1162.11263,1457.05474 1161.532,1474.45895 C1161.532,1474.45895 1167.21453,1484.46968 1154.68674,1484.72021 C1154.68674,1484.72021 1148.48105,1493.65074 1138.65747,1485.91389 M1120.63726,1463.89116 C1120.24526,1462.00337 1120.70947,1457.58084 1132.048,1456.27516 C1133.11495,1456.15726 1144.42842,1454.67326 1143.32905,1464.53221 M1125.22337,1475.10442 C1125.22337,1475.10442 1123.74379,1481.37053 1127.60926,1484.91179 M1133.56884,1473.54821 C1133.56884,1473.54821 1139.79811,1475.06758 1144.31642,1471.49979 M1153.57411,1472.23663 C1153.57411,1472.23663 1157.92147,1470.59495 1161.91958,1475.82211 M1132.34568,1466.20189 C1132.34568,1466.20189 1125.32653,1463.63032 1121.04105,1464.54989 L1119.54821,1464.92716 C1119.54821,1464.92716 1101.99811,1479.19242 1125.39432,1482.47579 C1125.39432,1482.47579 1132.25137,1492.57053 1140.54084,1483.21705 C1140.54084,1483.21705 1145.16084,1479.73768 1147.28442,1479.66842 M1162.57832,1534.61916 C1161.83411,1530.26737 1160.75537,1523.19368 1161.17979,1516.29979 C1161.17979,1516.29979 1163.68947,1504.99663 1168.71474,1497.77558 C1168.71474,1497.77558 1184.72926,1470.45937 1160.86295,1452.87389 C1160.86295,1452.87389 1139.74653,1437.21747 1114.20168,1451.70821 C1114.20168,1451.70821 1099.95558,1457.87411 1102.96926,1477.59347 C1102.96926,1477.59347 1103.57937,1483.11095 1101.83453,1485.68547 L1092.4,1496.77789 C1092.4,1496.77789 1091.14442,1500.07453 1094.91263,1500.38989 L1100.66295,1501.57474 C1100.66295,1501.57474 1103.06653,1506.264 1103.30821,1509.87305 C1103.54989,1513.48063 1102.70695,1517.92968 1102.70695,1517.92968 C1102.70695,1517.92968 1100.66295,1523.34253 1103.87263,1525.71958 C1104.50337,1525.87579 1106.85979,1528.54905 1123.65832,1524.93705 C1123.65832,1524.93705 1125.28084,1525.70632 1126.308,1534.48358 M1104.03032,1510.11326 L1111.24695,1510.23411" id="icon_talent"></path>
        </g>
    </g>
</svg>