<?xml version="1.0" encoding="UTF-8"?>
<svg width="98px" height="73px" viewBox="0 0 88 97" version="1.1" xmlns="http://www.w3.org/2000/svg" xmlns:xlink="http://www.w3.org/1999/xlink">
    <!-- Generator: Sketch 52.6 (67491) - http://www.bohemiancoding.com/sketch -->
    <title>icon_community</title>
    <desc>Created with Sketch.</desc>
    <g id="Page-1" stroke="none" stroke-width="1" fill="none" fill-rule="evenodd">
        <g id="San_Diego_Tech_Hub_Homepage" transform="translate(-258.000000, -1446.000000)" stroke="#4c4e7a" stroke-width="3.5">
            <path d="M312.316133,1458.61041 C312.316133,1464.2559 307.745911,1468.83148 302.107022,1468.83148 C296.468133,1468.83148 291.897911,1464.2559 291.897911,1458.61041 C291.897911,1452.96648 296.468133,1448.38934 302.107022,1448.38934 C307.745911,1448.38934 312.316133,1452.96648 312.316133,1458.61041 Z M310.338244,1542.46535 L310.305578,1516.36527 C314.715578,1516.3606 318.298022,1512.74437 318.2918,1508.32765 L318.2918,1486.25494 C318.287133,1481.83822 314.675133,1478.22822 310.263578,1478.23445 L293.872689,1478.23445 C289.461133,1478.24068 285.856911,1481.87716 285.863133,1486.29232 L285.861578,1508.36502 C285.8678,1512.78019 289.504689,1516.39019 293.916244,1516.38396 L293.947356,1542.46535 M341.877756,1469.04966 C341.877756,1474.69516 337.307533,1479.27073 331.668644,1479.27073 C326.029756,1479.27073 321.459533,1474.69516 321.459533,1469.04966 C321.459533,1463.40573 326.029756,1458.8286 331.668644,1458.8286 C337.307533,1458.8286 341.877756,1463.40573 341.877756,1469.04966 Z M335.787756,1542.46535 L335.755089,1521.30371 C340.165089,1521.29748 343.772422,1517.68125 343.7662,1513.26453 L343.739756,1496.91519 C343.736644,1492.49847 340.123089,1488.88847 335.711533,1488.8947 L325.9722,1488.89469 M262.277178,1469.04966 C262.277178,1474.69516 266.8474,1479.27073 272.486289,1479.27073 C278.125178,1479.27073 282.6954,1474.69516 282.6954,1469.04966 C282.6954,1463.40573 278.125178,1458.8286 272.486289,1458.8286 C266.8474,1458.8286 262.277178,1463.40573 262.277178,1469.04966 Z M268.367178,1542.46535 L268.399844,1521.30371 C263.989844,1521.29748 260.380956,1517.68125 260.388733,1513.26453 L260.413622,1496.91519 C260.418289,1492.49847 264.030289,1488.88847 268.441844,1488.8947 L278.181178,1488.89469" id="icon_community"></path>
        </g>
    </g>
</svg>