<?xml version="1.0" encoding="UTF-8"?>
<svg width="98px" height="73px" viewBox="0 0 98 73" version="1.1" xmlns="http://www.w3.org/2000/svg" xmlns:xlink="http://www.w3.org/1999/xlink">
    <!-- Generator: Sketch 52.6 (67491) - http://www.bohemiancoding.com/sketch -->
    <title>icon_education</title>
    <desc>Created with Sketch.</desc>
    <g id="Page-1" stroke="none" stroke-width="1" fill="none" fill-rule="evenodd" stroke-linecap="round" stroke-linejoin="round">
        <g id="San_Diego_Tech_Hub_Homepage" transform="translate(-452.000000, -1462.000000)" stroke="#4c4e7a" stroke-width="3.5">
            <path d="M541.086421,1486.26014 L547.744754,1483.98167 L547.744754,1477.65526 L501.023138,1464.30167 L454.301523,1477.65526 L454.301523,1483.98167 L501.023138,1499.23138 L534.137651,1488.42402 M475.130356,1498.69065 L475.130356,1509.29054 C480.993305,1514.86791 490.259536,1518.44182 500.436844,1518.44182 C510.611741,1518.44182 519.877972,1514.86791 525.740921,1509.29054 L525.740921,1491.79734 M534.557036,1511.48748 L534.557036,1483.75744 L503.289985,1475.31419 M539.620021,1516.79623 C539.620021,1519.59094 537.355585,1521.85494 534.566918,1521.85494 C531.774636,1521.85494 529.51261,1519.59094 529.51261,1516.79623 C529.51261,1514.00513 531.774636,1511.73872 534.566918,1511.73872 C537.355585,1511.73872 539.620021,1514.00513 539.620021,1516.79623 Z M532.283321,1521.49019 L529.493449,1532.87772 L539.639423,1532.87772 L536.847141,1521.49019" id="icon_education"></path>
        </g>
    </g>
</svg>