<svg id="Calque_2" data-name="Calque 2" xmlns="http://www.w3.org/2000/svg" viewBox="0 0 109 87"><defs><style>.cls-1,.cls-2,.cls-3,.cls-4{fill:none;stroke:#394553;stroke-width:2.5px;}.cls-1,.cls-3{stroke-linejoin:round;}.cls-2,.cls-3{stroke-linecap:round;}.cls-2,.cls-4{stroke-miterlimit:10;}</style></defs><title>tasks</title><path class="cls-1" d="M70.34,20.45h3.93a3.21,3.21,0,0,1,3.2,3.2V71.89a3.21,3.21,0,0,1-3.2,3.21H34.74a3.21,3.21,0,0,1-3.2-3.21V23.65a3.21,3.21,0,0,1,3.2-3.2h3.93"/><path class="cls-2" d="M65.18,17.14H59.83a5.33,5.33,0,0,0-10.66,0H43.82V24H65.18Z"/><polyline class="cls-3" points="52.09 41.36 52.09 46.19 38.67 46.19 38.67 32.77 47.32 32.77"/><polyline class="cls-3" points="42.94 37.48 46.51 41.41 54.29 31.36"/><line class="cls-4" x1="58.93" y1="36.47" x2="71.88" y2="36.47"/><line class="cls-4" x1="58.93" y1="42.48" x2="67.27" y2="42.48"/><polyline class="cls-3" points="52.09 63.14 52.09 67.97 38.67 67.97 38.67 54.55 47.32 54.55"/><polyline class="cls-3" points="42.94 59.26 46.51 63.19 54.29 53.14"/><line class="cls-4" x1="58.93" y1="58.25" x2="71.88" y2="58.25"/><line class="cls-4" x1="58.93" y1="64.26" x2="67.27" y2="64.26"/></svg>